<?xml version="1.0" standalone="no"?>
<!DOCTYPE svg PUBLIC "-//W3C//DTD SVG 20010904//EN"
 "http://www.w3.org/TR/2001/REC-SVG-20010904/DTD/svg10.dtd">
<svg version="1.0" xmlns="http://www.w3.org/2000/svg"
 width="729.000000pt" height="972.000000pt" viewBox="0 0 729.000000 972.000000"
 preserveAspectRatio="xMidYMid meet">
<metadata>
Created by potrace 1.14, written by Peter Selinger 2001-2017
</metadata>
<g transform="translate(0.000000,972.000000) scale(0.100000,-0.100000)"
fill="#ffffff" stroke="none">
<path d="M6035 9424 c-105 -15 -216 -50 -514 -159 -434 -159 -837 -307 -1396
-512 -247 -91 -583 -214 -745 -273 -998 -365 -1880 -689 -2100 -770 -58 -22
-199 -74 -315 -116 -330 -120 -400 -158 -526 -283 -480 -478 -287 -1295 358
-1510 171 -58 361 -62 533 -13 112 33 5141 1881 5204 1913 97 49 156 93 234
171 119 120 196 255 239 417 36 137 36 315 0 452 -86 325 -334 573 -654 655
-92 23 -253 37 -318 28z"/>
<path d="M6040 6694 c-76 -9 -189 -38 -275 -70 -208 -76 -3837 -1407 -4635
-1699 -206 -76 -403 -150 -436 -165 -195 -88 -368 -269 -454 -477 -100 -239
-90 -514 25 -748 110 -223 295 -386 526 -463 170 -56 323 -64 494 -25 39 9
326 110 640 225 314 115 752 276 975 358 2577 944 3584 1316 3635 1342 191 97
342 256 428 453 123 282 88 619 -92 884 -42 63 -157 177 -221 221 -90 61 -198
111 -295 135 -90 23 -245 37 -315 29z"/>
<path d="M6015 3959 c-38 -4 -99 -17 -135 -27 -36 -10 -884 -319 -1885 -687
-1848 -678 -2196 -806 -2865 -1050 -206 -75 -411 -154 -455 -176 -322 -158
-520 -497 -502 -859 7 -135 35 -240 97 -365 132 -265 369 -438 672 -491 104
-18 240 -14 343 11 89 21 5178 1889 5261 1931 99 49 218 147 291 239 294 371
258 899 -83 1226 -86 81 -143 120 -248 170 -145 68 -336 98 -491 78z"/>
</g>
</svg>
